<svg xmlns="http://www.w3.org/2000/svg" viewBox="0 0 59.6 55.5" width="80" height="80" aria-hidden="true">
  <defs>
    <style>
      .cls-2{fill:none;stroke:#15274f;stroke-linecap:round;stroke-linejoin:round;stroke-width:2px}
    </style>
  </defs>
  <g id="Layer_2">
    <g id="Layer_22">
      <circle cx="44.7" cy="13.6" r="10.6" fill="#7bbddf"/>
      <path d="M50 26.4s4.5 3 4.6 5.6-1.8 15-1.8 15h-2.6v4.6a3 3 0 0 1-2.9 3h-2.5a3 3 0 0 1-3-3V47h-25v4.6a3 3 0 0 1-2.9 2.9h-2.6a3 3 0 0 1-2.9-3V47H6S3.9 34.7 4 32s4.5-5.6 4.5-5.6c-1.2.3-4.2.4-5.8-.7-3.4-2.6-1.4-5.8 1.2-5.8a14 14 0 0 1 5.7 1.8M11.8 17l1.7-4c1.4-2.7 5.1-3.2 6.7-3.2h8.2" class="cls-2"/>
      <path d="M36.4 23.7H13.6a58.9 58.9 0 0 1 3.1-7.2 4.6 4.6 0 0 1 4-2.3H29" class="cls-2"/>
      <circle cx="12.1" cy="34.1" r="3.2" class="cls-2"/>
      <circle cx="46.6" cy="34.1" r="3.2" class="cls-2"/>
      <path d="M20.9 39a22.6 22.6 0 0 0 9.2 2.4 19 19 0 0 0 8.8-2.5" class="cls-2"/>
      <path fill="none" stroke="#15274f" stroke-linecap="round" stroke-miterlimit="10" stroke-width="2" d="M32.5 8.7a10.6 10.6 0 1 1-.3 4"/>
      <path fill="none" stroke="#15274f" stroke-linecap="round" stroke-miterlimit="10" stroke-width="3" d="M58.1 27.4l-7.8-7.8"/>
    </g>
  </g>
</svg>