<svg xmlns="http://www.w3.org/2000/svg" viewBox="0 0 65.7 63.1" width="80" height="80" aria-hidden="true">
  <defs>
    <style>
      .cls-2{fill:none;stroke:#15274f;stroke-linecap:round;stroke-linejoin:round;stroke-width:2px}
    </style>
  </defs>
  <g id="Layer_2">
    <g id="Layer_22">
      <path fill="#7cbddf" d="M65.6 15L55.2 4.1a.4.4 0 0 0-.5 0v3.3H21.9a.6.6 0 0 0-.6.7v7H48a.5.5 0 0 1 .5.5v7H55V26a.3.3 0 0 0 .5 0l10.1-10.6a.3.3 0 0 0 0-.4z"/>
      <path d="M17.3 32.4l1.4-3.1c1-2.2 4-2.6 5.3-2.6h14.4c1.3 0 4.2.4 5.3 2.6l3 6.8a11 11 0 0 1 4.6-1.4c2 0 3.6 2.6.9 4.6-1.3.9-3.6.8-4.6.6 0 0 3.5 2.3 3.6 4.4s-1.4 11.9-1.4 11.9h-2v3.6a2.3 2.3 0 0 1-2.4 2.3h-2a2.3 2.3 0 0 1-2.3-2.3v-3.6H21.3v3.6a2.3 2.3 0 0 1-2.3 2.3h-2a2.3 2.3 0 0 1-2.3-2.3v-3.6h-2s-1.5-9.8-1.4-11.9 3.6-4.4 3.6-4.4c-1 .2-3.4.3-4.6-.6-2.7-2-1.2-4.6.9-4.6a11 11 0 0 1 4.5 1.4" class="cls-2"/>
      <path d="M43.7 37.7h-25a47.5 47.5 0 0 1 2.5-5.7 3.6 3.6 0 0 1 3.2-1.8H38a3.6 3.6 0 0 1 3.2 1.8 46.8 46.8 0 0 1 2.5 5.7z" class="cls-2"/>
      <circle cx="17.5" cy="46" r="2.6" class="cls-2"/>
      <circle cx="44.9" cy="46" r="2.6" class="cls-2"/>
      <path d="M24.5 49.8a17.8 17.8 0 0 0 7.3 2 15 15 0 0 0 7-2M35.4 11.7H12V8.4a.3.3 0 0 0-.5 0L1.1 19.1a.4.4 0 0 0 0 .5l10 10.5a.4.4 0 0 0 .6 0v-3.4h2.5" class="cls-2"/>
      <path d="M29.3 4.5h22.4V1a.4.4 0 0 1 .5 0L62.6 12a.3.3 0 0 1 0 .5l-10 10.4a.3.3 0 0 1-.6 0v-3.4H37.5M18.6 4.6H25" class="cls-2"/>
    </g>
  </g>
</svg>