<svg xmlns="http://www.w3.org/2000/svg" viewBox="0 0 59.3 57.8" width="80" height="80" aria-hidden="true">
  <defs>
    <style>
      .cls-1,.cls-3{fill:none;stroke-width:2px}.cls-1{stroke:#15274f}.cls-1,.cls-2,.cls-3{stroke-linecap:round;stroke-linejoin:round}.cls-2{fill:#7dbddf;stroke:#7dbddf}.cls-3{stroke:#16274f}
    </style>
  </defs>
  <g id="Layer_2">
    <g id="Layer_22">
      <path d="M11.9 18.8a254 254 0 0 1 1.8-4c1.3-2.7 5-3.2 6.7-3.2H25M35.6 11.6H39c1.6 0 5.4.5 6.7 3.3l4 8.7a14 14 0 0 1 5.7-1.8c2.6 0 4.6 3.3 1.1 5.9-1.5 1.1-4.6 1-5.8.7 0 0 4.5 3 4.6 5.7s-1.8 15.1-1.8 15.1h-2.6V54a3 3 0 0 1-3 3h-2.5a3 3 0 0 1-3-3v-4.7H17v4.6a3 3 0 0 1-3 3h-2.5a3 3 0 0 1-3-3v-4.6H5.9S4 36.8 4.1 34.1s4.6-5.7 4.6-5.7c-1.2.3-4.3.4-5.8-.7-3.5-2.6-1.5-6 1.1-6a14 14 0 0 1 5.8 1.9" class="cls-1"/>
      <circle cx="12.2" cy="36.2" r="3.3" class="cls-1"/>
      <circle cx="47.1" cy="36.2" r="3.3" class="cls-1"/>
      <path d="M21 41a22.8 22.8 0 0 0 9.5 2.5 19.3 19.3 0 0 0 8.8-2.5" class="cls-1"/>
      <path d="M33.6 22l-4 11.1-4.1-4.7-6.1 1 7.9-21.7" class="cls-2"/>
      <path d="M30.8 16.2L37 33.1l4-4.7 6.1 1-7.9-21.7" class="cls-2"/>
      <path d="M39 12.8c0 2.3-2.4 3.2-5.5 3.2s-5.6-.9-5.6-3.2 2.5-5.1 5.6-5.1 5.6 2.9 5.6 5.1z" class="cls-2"/>
      <path d="M27.6 14.6h-6.1a5.4 5.4 0 0 1 .2-10.8c4.3 0 7.2 3.6 8.1 5M39.4 14.6h5.8A5.4 5.4 0 0 0 45 3.8c-4.1 0-7 3.4-8 4.8" class="cls-2"/>
      <path d="M28.6 24.4l-2.2 6-4-4.7-6.1 1 5.3-14.6M27.7 13.5l6.1 16.9 4.1-4.7 6.1 1-5.2-14.3" class="cls-3"/>
      <path d="M36 10c0 2.4-2.6 3.3-5.7 3.3s-5.6-1-5.6-3.2 2.5-5.2 5.6-5.2S36 7.8 36 10.1z" class="cls-3"/>
      <path d="M18.6 11.8a5.4 5.4 0 1 1 0-10.8c4.2 0 7.2 3.6 8 5M41.9 11.8a5.4 5.4 0 1 0 0-10.8c-4.2 0-7 3.4-8 4.8M20.6 6.6L24.3 8M36.3 7.7l3.6-1.3" class="cls-3"/>
    </g>
  </g>
</svg>