<svg xmlns="http://www.w3.org/2000/svg" viewBox="0 0 51.4 63" width="80" height="80" aria-hidden="true">
  <defs>
    <style>
      .cls-1{fill:none;stroke:#15274f;stroke-linecap:round;stroke-linejoin:round;stroke-width:2px}
    </style>
  </defs>
  <g id="Layer_2">
    <g id="Layer_22">
      <path d="M44.8 43.6c0 2.2-1.5 12.2-1.5 12.2h-2v3.8a2.4 2.4 0 0 1-2.5 2.4h-2a2.4 2.4 0 0 1-2.4-2.4v-3.8H13.9v3.8a2.4 2.4 0 0 1-2.4 2.4h-2A2.4 2.4 0 0 1 7 59.6v-3.8H5s-1.6-10-1.5-12.2S7.3 39 7.3 39c-1 .2-3.5.3-4.8-.6-2.8-2.1-1.2-4.7 1-4.7A11.3 11.3 0 0 1 8 35M9.8 31.3c.5-1.2 1-2.4 1.5-3.2 1-2.3 4-2.7 5.4-2.7h7.5" class="cls-1"/>
      <path fill="#fff" stroke="#15274f" stroke-linecap="round" stroke-linejoin="round" stroke-width="2" d="M26.2 36.8h-15a48.2 48.2 0 0 1 2.7-5.9A3.8 3.8 0 0 1 17 29h7.5"/>
      <circle cx="10" cy="45.3" r="2.6" class="cls-1"/>
      <circle cx="38.3" cy="45.3" r="2.6" class="cls-1"/>
      <path d="M17.2 49.2a18.4 18.4 0 0 0 7.6 2 15.6 15.6 0 0 0 7.2-2" class="cls-1"/>
      <path fill="#7dbddf" d="M46.5 14l-5.6-7.5-9.7 2.1-2 9.8 4.6 22.5 17.6-3.7L46.5 14"/>
      <path d="M43.5 11l-5.6-7.5-9.7 2.1-2 9.8 4.6 22.5 17.7-3.7-5-23.2" class="cls-1"/>
      <circle cx="34.4" cy="10.9" r="2.9" class="cls-1"/>
      <path d="M39.3 20.9a2.3 2.3 0 0 0-2.9-1.3c-2.4.5-2.8 2.4-2.2 3.6.4.9 1.4 1.2 3.4 1.5 1.7.4 3 .5 3.3 2.6a2.5 2.5 0 0 1-2.3 2.5c-.7.2-2.5.3-3.2-1.2M36.4 19.6l-.4-1.9M39 31.8l-.4-1.9M32.4 1l2 9.6" class="cls-1"/>
    </g>
  </g>
</svg>