<svg xmlns="http://www.w3.org/2000/svg" viewBox="0 0 66.9 53.2" width="80" height="80" aria-hidden="true">
  <defs>
    <style>
      .cls-2{fill:none;stroke:#15274f;stroke-linecap:round;stroke-linejoin:round;stroke-width:2px}
    </style>
  </defs>
  <g id="Layer_2">
    <g id="Layer_22">
      <path fill="#77bee2" d="M36 4a15.8 15.8 0 0 0-16 15.6 15.4 15.4 0 0 0 4.5 11 7.3 7.3 0 0 1 1.5-.2c2.6 0 4.8 1.3 5.3 3a9 9 0 0 1 3.7 1.8h1a15.8 15.8 0 0 0 16-15.7A15.8 15.8 0 0 0 36 4z"/>
      <path d="M36.6 12c-.3-1.3-1.3-2.5-3.5-2.5-3.5 0-4.5 2.5-4.1 4.1.3 1.3 1.6 2 4.1 3 2.3 1 4.1 1.5 3.8 4.3-.3 2.4-2.6 2.8-3.8 2.8-1 0-3.5-.3-4.1-2.5M33.1 9.5V6.9M33.1 26.4v-2.7" class="cls-2"/>
      <path d="M37.5 31.6a15.7 15.7 0 0 0 11.4-15A15.8 15.8 0 0 0 33 1a15.8 15.8 0 0 0-16 15.6A15.4 15.4 0 0 0 21 27M13 34.6c-2 1.1 12.2-7.4 18.7-1.8 2.3 2 4.3 3 6.1 3h10.6S50.1 44 41 44h-9.7c-3 0-5.9-2.8-5.9-2.8" class="cls-2"/>
      <path d="M66 30.4C53.3 55 48 52 35.5 52H22.3c-7.9 0-7-6.5-17.9-8" class="cls-2"/>
      <path d="M66 30.4s-5.5-5.3-10.1.8l-3.7 4.7M7.3 32.5l5.5 2.2M1 45.5a32 32 0 0 1 3.7-16.2" class="cls-2"/>
    </g>
  </g>
</svg>