<svg xmlns="http://www.w3.org/2000/svg" viewBox="0 0 62 42.2" width="80" height="80" aria-hidden="true">
  <defs>
    <style>
      .cls-2{fill:none;stroke:#15274f;stroke-linecap:round;stroke-linejoin:round;stroke-width:2px}
    </style>
  </defs>
  <g id="Layer_2">
    <g id="Layer_22">
      <path fill="#77bee2" d="M37 16.8c-7.5 0-13.3-3.2-21.6-3.2S4.1 15.2 4.1 15.2v25.4S6.5 39 15.4 39s14.2 3.2 21.6 3.2 11.1-1.6 11.1-1.6V15.2s-3.6 1.6-11.1 1.6zm-10.9 20a8.8 8.8 0 1 1 8.8-8.9 8.8 8.8 0 0 1-8.8 8.8z"/>
      <path d="M25.4 21.9a2 2 0 0 0-2.3-1.7c-2.2 0-2.9 1.6-2.6 2.7.2.9 1 1.3 2.6 2 1.5.6 2.7 1 2.4 2.9a2.2 2.2 0 0 1-2.4 1.8c-.6 0-2.2-.2-2.6-1.7M23.1 20.2v-1.7M23.1 31.3v-1.7" class="cls-2"/>
      <path d="M45 37.6s-3.7 1.6-11.1 1.6S21.2 36 12.3 36 1 37.6 1 37.6V12.2s3-1.6 11.3-1.6 14.2 3.2 21.6 3.2S45 12.2 45 12.2z" class="cls-2"/>
      <circle cx="23" cy="24.9" r="8.8" class="cls-2"/>
      <path d="M35.4 3.8h16.8V1a.3.3 0 0 1 .4 0L61 11.3a.3.3 0 0 1 0 .4l-8 10a.3.3 0 0 1-.4 0v-2.8h-1.4M25.8 3.9l5.1-.1" class="cls-2"/>
    </g>
  </g>
</svg>