<svg xmlns="http://www.w3.org/2000/svg" viewBox="0 0 60.1 59.06" width="80" height="80" aria-hidden="true">
    <defs>
        <style>.cls-1{fill:none;stroke:#15274f;stroke-width:2px;}.cls-1,.cls-2{stroke-linecap:round;stroke-linejoin:round;}.cls-2{fill:#7bbddf;stroke:#7cbddf;}</style>
    </defs>
    <g id="Layer_2">
        <g id="Layer_22">
            <path class="cls-1" d="M57.33,27.31a4.69,4.69,0,0,1-1.63,2c-1.56,1.08-4.56,1-5.81.7,0,0,4.47,2.94,4.59,5.59s-1.81,14.93-1.81,14.93H50.12v4.57a2.92,2.92,0,0,1-2.92,2.92H44.66a2.91,2.91,0,0,1-2.92-2.92V50.57h-25v4.57a2.92,2.92,0,0,1-2.92,2.92H11.32a2.91,2.91,0,0,1-2.91-2.92V50.57H5.85S3.94,38.3,4.05,35.64s4.58-5.59,4.58-5.59c-1.25.27-4.25.38-5.8-.7C-.58,26.75,1.36,23.51,4,23.51a14,14,0,0,1,5.68,1.78"/>
            <path class="cls-1" d="M11.75,20.57c.64-1.41,1.29-2.85,1.77-3.87,1.31-2.77,5-3.25,6.65-3.25H32.86"/>
            <path class="cls-1" d="M45,27.31H13.52a60.16,60.16,0,0,1,3.16-7.18,4.62,4.62,0,0,1,4.05-2.3h9.09"/>
            <circle class="cls-1" cx="12.02" cy="37.7" r="3.23"/>
            <circle class="cls-1" cx="46.5" cy="37.7" r="3.23"/>
            <path class="cls-1" d="M20.81,42.52A22.53,22.53,0,0,0,30.07,45a19,19,0,0,0,8.76-2.43"/>
            <polygon class="cls-2" points="47.29 3.11 53.45 13.77 59.6 24.43 47.29 24.43 34.98 24.43 41.13 13.77 47.29 3.11"/>
            <polygon class="cls-1" points="44.13 1 50.28 11.66 56.44 22.32 44.13 22.32 31.82 22.32 37.97 11.66 44.13 1"/>
            <line class="cls-1" x1="44.13" y1="9.06" x2="44.13" y2="14.54"/>
            <line class="cls-1" x1="44.13" y1="17.82" x2="44.13" y2="17.82"/>
        </g>
    </g>
</svg>