<svg xmlns="http://www.w3.org/2000/svg" viewBox="0 0 69.5 67.3">
  <defs>
    <style>
      .cls-1{fill:#77bee2}.cls-2{fill:none;stroke:#15274f;stroke-linecap:round;stroke-linejoin:round;stroke-width:2px}
    </style>
  </defs>
  <g id="Layer_2" data-name="Layer 2">
    <g id="affordable_ownership" data-name="affordable ownership">
      <path d="M65.8 34.7L45 24.7a10.5 10.5 0 1 0-3.7 6.2L48 34l5-1 2 4.5 5-1 2.7 4.7c.3.2 3.4 2.3 5.7.3s1.3-5-2.5-6.8zM32 24.7a3.2 3.2 0 1 1 3.2-3.2 3.2 3.2 0 0 1-3.2 3.2z" class="cls-1"/>
      <path d="M43.5 60.5L33.2 39.7a10.5 10.5 0 0 0 1-14.6c-.4-.5-5.9 1.8-6.4 1.3-1.8-1.3 1.2-4.8-.8-4.9a10.5 10.5 0 1 0-.5 21l3.2 6.5 4.6 2.3-1 4.7 4.5 2.3-.8 5.3c.2.4 1.3 4 4.4 3.7s4-3 2-6.8z" class="cls-1"/>
      <path d="M35.5 29.7a10.6 10.6 0 1 1 6.6-8M42.1 21.7L63 31.8c3.8 1.9 4.9 4.7 2.5 6.7s-5.3 0-5.7-.2l-2.6-4.8-5 1-2-4.4-5 1-5.8-2.8M32.8 33.3a10.6 10.6 0 0 1-2.6 3.2M20.1 38.6a10.6 10.6 0 0 1-2-19.2M30.2 36.5l10 21c1.8 3.8.8 6.6-2.3 6.8s-4.1-3.5-4.3-3.8l1-5.4-4.6-2.3 1.1-4.8-4.5-2.3-2.7-5.7" class="cls-2"/>
      <circle cx="29.2" cy="18.6" r="3.2" class="cls-2"/>
      <path d="M6.3 26.4a14.3 14.3 0 1 1 23-7.7" class="cls-2"/>
    </g>
  </g>
</svg>