<svg xmlns="http://www.w3.org/2000/svg" viewBox="0 0 51.3 47.4">
  <defs>
    <style>
      .cls-2,.cls-3{fill:none;stroke-linecap:round;stroke-width:2px}.cls-2{stroke:#1a3864;stroke-linejoin:round}.cls-3{stroke:#1a3964;stroke-miterlimit:10}
    </style>
  </defs>
  <g id="Layer_2" data-name="Layer 2">
    <g id="paper_work" data-name="paper work">
      <path fill="#7bbee0" d="M44.8 33.7L35 26.2l-9.8 7.5a1 1 0 0 1-1-1V5a1 1 0 0 1 1-1h19.6a1 1 0 0 1 1 1v27.7a1 1 0 0 1-1 1z"/>
      <path d="M6.7 46.4a5.7 5.7 0 0 0 5.7-5.7h37.9a5.7 5.7 0 0 1-5.7 5.7h-38M37 31.9v8.8M6.6 25.3h11.1M6.6 34.3h21.9M6.6 16.3h7.1" class="cls-2"/>
      <path d="M6.7 46.4A5.7 5.7 0 0 1 1 40.7v-36h17.5" class="cls-2"/>
      <path d="M40.4 1h1.4a1 1 0 0 1 1 1v27.7a1 1 0 0 1-1 1L32 23.2l-9.8 7.5a1 1 0 0 1-1-1V2a1 1 0 0 1 1-1h11.4" class="cls-3"/>
      <path d="M35.5 11.3L31 17a.3.3 0 0 1-.3 0l-2.2-1.8" class="cls-3"/>
    </g>
  </g>
</svg>