<svg xmlns="http://www.w3.org/2000/svg" viewBox="0 0 56.7 61.2">
  <defs>
    <style>
      .cls-1,.cls-3,.cls-4{fill:none;stroke-linecap:round;stroke-width:2px}.cls-1{stroke:#1b3964;stroke-miterlimit:10}.cls-3,.cls-4{stroke:#1a3864;stroke-linejoin:round}.cls-4{stroke:#1a3964}
    </style>
  </defs>
  <g id="Layer_2" data-name="Layer 2">
    <g id="lady">
      <path d="M45 20.4c.6 8.3 3.1 11 3.1 11s.8 6.6-13.3 3.6M9.6 20.4c-.6 8.3-3.1 11-3.1 11S5.7 38 19.8 35" class="cls-1"/>
      <path fill="#7abee0" d="M37.3 38.2h-.4a6.6 6.6 0 0 1-13 0h-.4C13.7 38.2 4 44.5 4 55.9c0 0 6.5 5.3 26.4 5.3a86 86 0 0 0 12.2-.8l4.2-.7c7.2-1.6 10-3.8 10-3.8 0-11.4-9.8-17.7-19.5-17.7z"/>
    </g>
    <g id="Layer_8" data-name="Layer 8">
      <circle cx="27.4" cy="18.7" r="17.7" class="cls-3"/>
      <path d="M20.4 2.7A17.8 17.8 0 0 1 10 15.9M40.7 15.5a18.1 18.1 0 0 1-2.3.2A17.7 17.7 0 0 1 21.2 2.3M27.4 41a7.6 7.6 0 0 1-4.2 1.2 7.7 7.7 0 0 1-7.6-6M39 36.4A7.7 7.7 0 0 1 27.4 41M31 39.8a6.7 6.7 0 0 1-10.2-4.2" class="cls-3"/>
      <path d="M6.5 55.7A15.2 15.2 0 0 1 1 53.1c0-11.3 9.7-17.7 19.4-17.7M38.3 57.9a89.3 89.3 0 0 1-11 .6A77.9 77.9 0 0 1 11 57M34.3 35.4c9.7 0 19.4 6.4 19.4 17.8 0 0-2.7 2.2-10 3.7M11 50.5v6.1M43.7 50.5v6.1" class="cls-4"/>
    </g>
  </g>
</svg>